<svg height="512pt" viewBox="0 -3 512 512" width="512pt" xmlns="http://www.w3.org/2000/svg"><path d="m496.882812 0h-481.765624c-8.347657 0-15.117188 6.769531-15.117188 15.117188v114.808593c0 8.351563 6.769531 15.121094 15.117188 15.121094h68.640624v345.136719c0 8.347656 6.769532 15.117187 15.117188 15.117187h314.25c8.347656 0 15.117188-6.769531 15.117188-15.117187v-345.136719h68.640624c8.347657 0 15.117188-6.769531 15.117188-15.121094v-114.808593c0-8.347657-6.769531-15.117188-15.117188-15.117188zm-142.882812 475.066406v-387.425781h44.003906v387.421875h-44.003906zm-240.003906-387.425781h139.984375v387.421875h-139.984375zm170.21875 387.425781v-387.425781h39.546875v387.421875h-39.546875zm197.550781-360.257812h-53.523437v-27.167969h17.59375c8.351562 0 15.121093-6.769531 15.121093-15.117187 0-8.351563-6.769531-15.117188-15.121093-15.117188h-379.671876c-8.351562 0-15.121093 6.765625-15.121093 15.117188 0 8.347656 6.769531 15.117187 15.121093 15.117187h17.59375v27.167969h-53.523437v-84.574219h451.53125zm0 0"/><path d="m180.761719 316.945312c-8.351563 0-15.121094 6.769532-15.121094 15.117188v101.417969c0 8.351562 6.769531 15.121093 15.121094 15.121093 8.347656 0 15.117187-6.769531 15.117187-15.121093v-101.417969c0-8.347656-6.769531-15.117188-15.117187-15.117188zm0 0"/></svg>