<?xml version="1.0" ?><svg style="enable-background:new 0 0 48 48;" version="1.1" viewBox="0 0 48 48" xml:space="preserve" xmlns="http://www.w3.org/2000/svg" xmlns:xlink="http://www.w3.org/1999/xlink"><g id="Padding__x26__Artboard"/><g id="Icons"><g><path d="M36.73438,13.93262H11.26562c-1.39551,0-2.53125,1.13574-2.53125,2.53125v15.07227    c0,1.39551,1.13574,2.53125,2.53125,2.53125h25.46875c1.39551,0,2.53125-1.13574,2.53125-2.53125V16.46387    C39.26562,15.06836,38.12988,13.93262,36.73438,13.93262z M19.00659,21.2691c-0.77112,0.00317-1.5423,0.00287-2.31342,0.00391    c-0.01593,0-0.0318,0.0033-0.06042,0.00647c0,0.05341,0,0.09619,0,0.13922c-0.00006,1.05359,0.00311,2.1073-0.00171,3.16089    c-0.00177,0.40887-0.1319,0.77087-0.45319,1.04352c-0.27258,0.23126-0.59839,0.3255-0.94818,0.3371    c-0.78961,0.02655-1.53082-0.17731-2.24841-0.48694c-0.07611-0.0329-0.14941-0.0733-0.22742-0.10095    c-0.06879-0.02454-0.08337-0.06665-0.08337-0.13501c0.00171-2.2901-0.00043-4.58014,0.00208-6.8703    c0.00153-1.37524,0.90314-2.50073,2.24414-2.7951c0.21851-0.04791,0.44788-0.06421,0.6723-0.06464    c1.30951-0.00226,2.6192,0.00494,3.92865,0.00745c0.07751,0.00018,0.12811,0.00085,0.12811,0.10767    c-0.00287,4.69989-0.00037,9.39972-0.00537,14.09961c-0.00079,0.80127-0.31824,1.4776-0.90192,2.02289    c-0.54047,0.50488-1.19012,0.75073-1.9278,0.75342c-1.33612,0.00488-2.6723,0.00299-4.00842,0.00397    c-0.03931,0-0.07849,0-0.12396,0c0-1.98779,0-3.96716,0-5.95789c0.16809,0.03613,0.33441,0.07379,0.5014,0.10699    c0.55096,0.10913,1.10626,0.1936,1.66791,0.21155c0.4809,0.0152,0.96368,0.02228,1.44379-0.00214    c0.59607-0.03021,1.17877-0.1441,1.71497-0.42657c0.68555-0.36133,1.05493-0.93372,1.06854-1.70563    c0.01947-1.11981,0.0119-2.23987,0.01636-3.35986C19.09149,21.30969,19.08569,21.26886,19.00659,21.2691z M26.63409,25.37    c-0.5354,0.26288-1.09332,0.45831-1.68524,0.54352c-0.58057,0.0835-1.15906,0.09924-1.71637-0.12665    c-0.64331-0.26086-0.99463-0.74988-1.08984-1.42926c-0.04907-0.34924-0.03589-0.6969,0.0697-1.0354    c0.2196-0.70312,0.72675-1.08044,1.42511-1.22302c0.65924-0.1347,1.31079-0.05353,1.94635,0.13458    c0.3476,0.10291,0.68018,0.25702,1.01917,0.38861c0.0329,0.0127,0.06439,0.02911,0.1037,0.04712    c0.00281-0.03119,0.00592-0.05054,0.00592-0.0697c0.00037-0.349-0.00061-0.69812,0.0011-1.047    c0.00037-0.05731-0.01093-0.08643-0.07623-0.10168c-0.98279-0.23004-1.97656-0.36072-2.98761-0.33075    c-0.73267,0.02173-1.45648,0.10284-2.15057,0.35809c-0.35138,0.12921-0.67743,0.30475-0.979,0.55182    c-0.00391-0.03619-0.00879-0.06006-0.00879-0.08386c-0.00031-1.19995-0.005-2.39972,0.00098-3.59955    c0.00684-1.36377,0.91089-2.48486,2.24091-2.77759c0.21222-0.04681,0.43451-0.06488,0.65222-0.06592    c1.32599-0.00604,2.65222-0.0025,3.97839-0.00604c0.09882-0.00043,0.11908,0.03088,0.11908,0.12378    c-0.0022,4.65637-0.00159,9.31281-0.00226,13.9693c-0.00012,0.8252-0.27502,1.54187-0.87231,2.11951    c-0.46832,0.45288-1.03143,0.71448-1.6828,0.7757c-0.1286,0.01208-0.25842,0.01648-0.38763,0.01648    c-1.30615,0.00122-2.61237,0.00079-3.91858,0.00079c-0.039,0-0.078,0-0.1225,0c0-2.17621,0-4.34198,0-6.52319    c0.08862,0.06451,0.1665,0.12543,0.24841,0.17993c0.48981,0.32568,1.03741,0.4989,1.61017,0.60339    c0.78644,0.14319,1.57983,0.15149,2.37341,0.09528c0.65869-0.04651,1.3078-0.16382,1.9566-0.32062c0-0.39478,0-0.78876,0-1.19257    C26.68018,25.3537,26.65588,25.35931,26.63409,25.37z M33.41058,32.3493c-0.28851,0.0968-0.58502,0.14886-0.88831,0.14948    c-1.3526,0.00238-2.70538,0.00128-4.05798,0.0014c-0.03265,0-0.06512,0-0.10645,0    c-0.00208-0.04462-0.00519-0.08008-0.00519-0.11572c-0.00031-1.84448,0.00049-3.68896-0.00232-5.53357    c-0.00006-0.09668,0.02686-0.12219,0.12262-0.12183c1.38593,0.0047,2.77173,0.00525,4.15759,0.00751    c0.35425,0.00061,0.70282-0.03058,1.03241-0.17279c0.40619-0.17511,0.71112-0.44922,0.84149-0.88507    c0.1571-0.52533-0.0304-1.05695-0.48126-1.37952c-0.2995-0.21423-0.6391-0.31519-1.00055-0.35382    c-0.0224-0.00226-0.04456-0.00519-0.06927-0.02368c0.08942-0.02258,0.17999-0.04089,0.26782-0.0686    c0.45599-0.14398,0.81061-0.40863,0.94617-0.88501c0.18311-0.64331-0.0874-1.27899-0.83569-1.55292    c-0.3064-0.11218-0.62549-0.14246-0.94897-0.1424c-1.2995,0.00031-2.599,0.00024-3.89844,0.00031c-0.03931,0-0.07867,0-0.12671,0    c-0.00189-0.04321-0.00488-0.0788-0.00488-0.11426c-0.00031-0.9306-0.0022-1.86121,0.00018-2.79181    c0.00385-1.37262,0.90515-2.49951,2.24384-2.79395c0.21851-0.04797,0.44757-0.06555,0.67188-0.0661    c1.30939-0.0033,2.61884,0.00281,3.92822,0.0058c0.12866,0.00043,0.12909,0.00073,0.12909,0.13422    c0.00012,4.65619-0.0061,9.31244,0.00391,13.96863C35.33258,30.92816,34.49646,31.9848,33.41058,32.3493z M29.82678,24.3537    c0.51849-0.00031,1.03687-0.00232,1.55518,0.00049c0.35583,0.00177,0.63879,0.21008,0.72699,0.52618    c0.13593,0.48712-0.18567,0.93909-0.70026,0.95331c-0.5412,0.01501-1.08325,0.00342-1.62469,0.00311    c-0.0094,0-0.01874-0.005-0.03674-0.01001c0-0.49042,0-0.97479,0-1.46539C29.77606,24.35846,29.80145,24.35376,29.82678,24.3537z     M29.74725,23.48468c0-0.45129,0-0.89178,0-1.33929c0.02832-0.00372,0.05341-0.00989,0.07874-0.00989    c0.47791-0.00031,0.95587-0.00342,1.4339,0.00189c0.32849,0.00372,0.57275,0.18701,0.65747,0.47742    c0.12769,0.43896-0.16437,0.86188-0.62036,0.8736c-0.4942,0.0127-0.98901,0.00458-1.48352,0.00507    C29.79425,23.49347,29.77509,23.48846,29.74725,23.48468z" style="fill:#303030;"/></g></g></svg>